<?xml version="1.0" encoding="iso-8859-1"?>
<!-- Generator: Adobe Illustrator 19.0.0, SVG Export Plug-In . SVG Version: 6.00 Build 0)  -->
<svg version="1.1" id="Capa_1" xmlns="http://www.w3.org/2000/svg" xmlns:xlink="http://www.w3.org/1999/xlink" x="0px" y="0px"
	 viewBox="0 0 512 512" style="enable-background:new 0 0 512 512;" xml:space="preserve">
<g>
	<g>
		<path d="M315.03,265.947c47.547-22.256,80.556-70.383,80.563-126.353C395.586,62.5,333.099,0.007,255.993,0
			c-77.092,0.007-139.586,62.494-139.592,139.593c0.007,55.97,33.017,104.097,80.556,126.353
			C91.261,292.322,12.939,387.866,12.932,501.753c0,2.698,1.092,5.335,2.999,7.248c1.906,1.914,4.549,2.999,7.248,2.999h465.642
			c2.698,0,5.335-1.093,7.248-2.999s2.999-4.549,2.999-7.248C499.061,387.866,420.739,292.322,315.03,265.947z M171.783,223.803
			c-21.566-21.587-34.874-51.297-34.881-84.218c0.007-32.913,13.315-62.623,34.881-84.21c21.581-21.566,51.297-34.874,84.21-34.881
			c32.913,0.007,62.63,13.315,84.218,34.881c21.566,21.587,34.874,51.297,34.881,84.21c-0.007,32.921-13.315,62.63-34.881,84.218
			c-21.587,21.566-51.304,34.874-84.218,34.881C223.079,258.678,193.362,245.37,171.783,223.803z M300.807,283.694l-29.238,43.858
			h-29.478l-24.955-44.923c12.625-2.227,25.597-3.449,38.864-3.449C271.35,279.179,286.332,280.737,300.807,283.694z
			 M33.686,491.507v-0.001c2.602-57.405,26.895-109.083,64.932-147.141c26.738-26.738,60.226-46.625,97.682-57.028l28.951,52.103
			L193.56,491.507H33.686z M214.499,491.505l29.894-143.46h24.655l35.858,143.46H214.499z M326.036,491.505l-37.949-151.794
			l33.747-50.628c34.977,10.814,66.265,30.018,91.541,55.28c38.037,38.058,62.33,89.73,64.932,147.141H326.036z"/>
	</g>
</g>
<g>
</g>
<g>
</g>
<g>
</g>
<g>
</g>
<g>
</g>
<g>
</g>
<g>
</g>
<g>
</g>
<g>
</g>
<g>
</g>
<g>
</g>
<g>
</g>
<g>
</g>
<g>
</g>
<g>
</g>
</svg>
