<?xml version="1.0" encoding="iso-8859-1"?>
<!-- Generator: Adobe Illustrator 19.0.0, SVG Export Plug-In . SVG Version: 6.00 Build 0)  -->
<svg version="1.1" id="Capa_1" xmlns="http://www.w3.org/2000/svg" xmlns:xlink="http://www.w3.org/1999/xlink" x="0px" y="0px"
	 viewBox="0 0 511.999 511.999" style="enable-background:new 0 0 511.999 511.999;" xml:space="preserve">
<g>
	<g>
		<path d="M496.625,408.181c-0.519-5.193-5.156-8.98-10.349-8.462l-35.829,3.604c23.68-36.812,37.473-80.631,37.468-127.626
			C487.895,165.809,412.923,73.439,311.29,47.006c-5.06-1.311-10.214,1.714-11.531,6.767c-1.311,5.053,1.714,10.214,6.768,11.531
			c93.447,24.316,162.503,109.308,162.485,210.399c-0.007,43.661-12.899,84.223-35.041,118.274l-11.934-35.822
			c-1.651-4.952-7.001-7.63-11.948-5.979c-4.959,1.651-7.63,7.001-5.979,11.953l20.258,60.819l63.8-6.414
			C493.36,418.011,497.147,413.38,496.625,408.181z"/>
	</g>
</g>
<g>
	<g>
		<path d="M295.664,272.546h-40.958v-53.56c0-5.217-4.235-9.452-9.452-9.452c-5.217,0-9.452,4.228-9.452,9.452v63.012
			c0,2.489,1.008,4.921,2.766,6.686c1.758,1.764,4.196,2.766,6.686,2.766h50.41c5.217,0,9.452-4.228,9.452-9.452
			C305.116,276.773,300.881,272.546,295.664,272.546z"/>
	</g>
</g>
<g>
	<g>
		<path d="M251.623,165.425c-60.907,0.006-110.266,49.364-110.272,110.272c0.007,60.908,49.364,110.266,110.272,110.272
			c60.908-0.007,110.266-49.364,110.272-110.272C361.888,214.789,312.531,165.431,251.623,165.425z M316.23,340.302
			c-16.566,16.547-39.345,26.755-64.607,26.761c-25.262-0.007-48.041-10.214-64.607-26.761
			c-16.554-16.566-26.755-39.345-26.761-64.607c0.007-25.262,10.208-48.047,26.761-64.607
			c16.566-16.547,39.345-26.754,64.607-26.761c25.262,0.007,48.041,10.214,64.607,26.761c16.554,16.559,26.755,39.345,26.761,64.607
			C342.984,300.957,332.783,323.736,316.23,340.302z"/>
	</g>
</g>
<g>
	<g>
		<path d="M409.95,438.419c-3.479-3.893-9.453-4.221-13.348-0.736c-38.495,34.468-89.251,55.4-144.986,55.407
			c-82.54,0.007-154.273-46.018-191.098-113.776l40.057,2.616c5.205,0.341,9.703-3.604,10.044-8.816
			c0.346-5.205-3.604-9.71-8.809-10.051l-63.97-4.171l-18.116,61.513c-1.474,5.003,1.386,10.258,6.396,11.739
			c5.003,1.474,10.258-1.386,11.732-6.396l9.364-31.79c40.863,70.517,117.027,118.036,204.401,118.041
			c60.517,0.007,115.805-22.786,157.601-60.234C413.107,448.28,413.434,442.307,409.95,438.419z"/>
	</g>
</g>
<g>
	<g>
		<path d="M234.837,2.783c-3.68-3.699-9.659-3.711-13.365-0.032c-3.699,3.68-3.712,9.666-0.025,13.365h-0.007l23.353,23.459
			C117.457,43.199,15.333,147.479,15.326,275.697c0,19.54,2.375,38.544,6.863,56.724c1.241,5.073,6.364,8.166,11.43,6.919
			c5.073-1.248,8.167-6.37,6.919-11.437c-4.121-16.723-6.308-34.196-6.308-52.206c0.007-60.057,24.316-114.349,63.668-153.719
			c39.288-39.276,93.447-63.56,153.36-63.668l-21.531,33.862c-2.805,4.404-1.5,10.246,2.899,13.05
			c4.404,2.805,10.253,1.5,13.05-2.899l34.398-54.09L234.837,2.783z"/>
	</g>
</g>
<g>
</g>
<g>
</g>
<g>
</g>
<g>
</g>
<g>
</g>
<g>
</g>
<g>
</g>
<g>
</g>
<g>
</g>
<g>
</g>
<g>
</g>
<g>
</g>
<g>
</g>
<g>
</g>
<g>
</g>
</svg>
