<svg height="512" viewBox="0 0 64 64" width="512" xmlns="http://www.w3.org/2000/svg"><g id="calculating"><rect fill="#ffeb99" height="38" rx="2" width="28" x="13" y="3"/><path d="m33 30h4v7h-4z" fill="#00d7df"/><path d="m33 23h4v3h-4z" fill="#00d7df"/><rect fill="#00d7df" height="12" rx="4" width="20" x="17" y="7"/><path d="m41 5v34a2.006 2.006 0 0 1 -2 2h-2a2.006 2.006 0 0 0 2-2v-34a2.006 2.006 0 0 0 -2-2h2a2.006 2.006 0 0 1 2 2z" fill="#ffd422"/><path d="m37 11v4a4 4 0 0 1 -4 4h-2a4 4 0 0 0 4-4v-4a4 4 0 0 0 -4-4h2a4 4 0 0 1 4 4z" fill="#00b6bd"/><g fill="#00d7df"><rect height="5" rx="1.5" width="5" x="25" y="32"/><rect height="5" rx="1.5" width="5" x="25" y="23"/><rect height="5" rx="1.5" width="5" x="17" y="32"/><rect height="5" rx="1.5" width="5" x="17" y="23"/></g><path d="m36.79 41h2.21a2.006 2.006 0 0 0 2-2v-15l14.32 8.48a12.01 12.01 0 0 1 5.68 10.2v17.32a1 1 0 0 1 -1 1h-18a8 8 0 0 1 -8-8v-2l-7.78-9.12a3.687 3.687 0 0 1 -.66-.88 4 4 0 0 1 .19-4.21 4.182 4.182 0 0 1 .47-.57 3.981 3.981 0 0 1 2.83-1.17 4.326 4.326 0 0 1 .95.11 3.994 3.994 0 0 1 1.88 1.06z" fill="#ffdaaa"/><path d="m61 42.68v17.32a1 1 0 0 1 -1 1h-4a1 1 0 0 0 1-1v-17.32a12.01 12.01 0 0 0 -5.68-10.2l-10.32-6.11v-2.37l14.32 8.48a12.01 12.01 0 0 1 5.68 10.2z" fill="#ffc477"/><path d="m21 20h12a5.006 5.006 0 0 0 5-5v-4a5.006 5.006 0 0 0 -5-5h-12a5.006 5.006 0 0 0 -5 5v4a5.006 5.006 0 0 0 5 5zm-3-9a3 3 0 0 1 3-3h12a3 3 0 0 1 3 3v4a3 3 0 0 1 -3 3h-12a3 3 0 0 1 -3-3z"/><path d="m20.5 22h-2a2.5 2.5 0 0 0 -2.5 2.5v2a2.5 2.5 0 0 0 2.5 2.5h2a2.5 2.5 0 0 0 2.5-2.5v-2a2.5 2.5 0 0 0 -2.5-2.5zm.5 4.5a.5.5 0 0 1 -.5.5h-2a.5.5 0 0 1 -.5-.5v-2a.5.5 0 0 1 .5-.5h2a.5.5 0 0 1 .5.5z"/><path d="m20.5 31h-2a2.5 2.5 0 0 0 -2.5 2.5v2a2.5 2.5 0 0 0 2.5 2.5h2a2.5 2.5 0 0 0 2.5-2.5v-2a2.5 2.5 0 0 0 -2.5-2.5zm.5 4.5a.5.5 0 0 1 -.5.5h-2a.5.5 0 0 1 -.5-.5v-2a.5.5 0 0 1 .5-.5h2a.5.5 0 0 1 .5.5z"/><path d="m28.5 22h-2a2.5 2.5 0 0 0 -2.5 2.5v2a2.5 2.5 0 0 0 2.5 2.5h2a2.5 2.5 0 0 0 2.5-2.5v-2a2.5 2.5 0 0 0 -2.5-2.5zm.5 4.5a.5.5 0 0 1 -.5.5h-2a.5.5 0 0 1 -.5-.5v-2a.5.5 0 0 1 .5-.5h2a.5.5 0 0 1 .5.5z"/><path d="m30 17h2a2 2 0 0 0 2-2v-4a2 2 0 0 0 -2-2h-2a2 2 0 0 0 -2 2v4a2 2 0 0 0 2 2zm0-6h2v4h-2z"/><path d="m37 22h-4a1 1 0 0 0 -1 1v3a1 1 0 0 0 1 1h4a1 1 0 0 0 1-1v-3a1 1 0 0 0 -1-1zm-1 3h-2v-1h2z"/><path d="m55.826 31.621-13.826-8.191v-18.43a3 3 0 0 0 -3-3h-24a3 3 0 0 0 -3 3v34a3 3 0 0 0 3 3h10.027a4.591 4.591 0 0 0 .432.529l7.541 8.839v1.632a9.01 9.01 0 0 0 9 9h18a2 2 0 0 0 2-2v-17.315a12.929 12.929 0 0 0 -6.174-11.064zm-40.826 8.379a1 1 0 0 1 -1-1v-34a1 1 0 0 1 1-1h24a1 1 0 0 1 1 1v34a1 1 0 0 1 -1 1h-1.806l-2.053-2h1.859a1 1 0 0 0 1-1v-7a1 1 0 0 0 -1-1h-4a1 1 0 0 0 -1 1v5.031a4.881 4.881 0 0 0 -1-.585v-.946a2.5 2.5 0 0 0 -2.5-2.5h-2a2.5 2.5 0 0 0 -2.5 2.5v2a2.469 2.469 0 0 0 .511 1.478 4.99 4.99 0 0 0 -.461 2.072 5.159 5.159 0 0 0 .092.95zm19-4v-5h2v5zm-8-.887v-1.613a.5.5 0 0 1 .5-.5h2a.5.5 0 0 1 .5.5v.555a4.947 4.947 0 0 0 -3 1.058zm34 24.887h-18a7.008 7.008 0 0 1 -7-7v-2a1 1 0 0 0 -.239-.649l-7.834-9.178a3.008 3.008 0 0 1 0-4.246 3.072 3.072 0 0 1 4.255.01l13.118 12.78 1.4-1.434-6.474-6.306a2.994 2.994 0 0 0 2.774-2.977v-13.245l12.79 7.577a10.933 10.933 0 0 1 5.21 9.353z"/><path d="m52.843 34.631-1.053 1.7a10.933 10.933 0 0 1 5.21 9.354h2a12.922 12.922 0 0 0 -6.157-11.054z"/><path d="m44 2h2v2h-2z"/><path d="m44 6h2v8h-2z"/><path d="m8 30h2v2h-2z"/><path d="m8 34h2v8h-2z"/></g></svg>